<?xml version="1.0" encoding="UTF-8"?>
<svg id="Calque_1" data-name="Calque 1" xmlns="http://www.w3.org/2000/svg" version="1.1" viewBox="0 0 800 800">
  <defs>
    <style>
      .cls-1 {
        fill: #cb1f27;
        stroke-width: 0px;
      }
    </style>
  </defs>
  <path class="cls-1" d="M38.4,400.3c0,148,89,275.1,216.3,330.9-1-25.2-.2-55.5,6.3-83,6.9-29.3,46.5-196.9,46.5-196.9,0,0-11.5-23.1-11.5-57.2,0-53.5,31-93.5,69.7-93.5s48.7,24.7,48.7,54.2-21.1,82.5-31.9,128.2c-9.1,38.3,19.2,69.6,57,69.6,68.5,0,114.6-87.9,114.6-192.1s-53.3-138.5-150.3-138.5-177.9,81.7-177.9,173,9.3,53.7,23.8,70.9c6.7,7.9,7.6,11.1,5.2,20.1-1.7,6.6-5.7,22.7-7.4,29-2.4,9.2-9.8,12.4-18.1,9-50.5-20.6-74-75.9-74-138,0-102.6,86.6-225.7,258.2-225.7s228.7,99.8,228.7,207-78.8,247.6-195,247.6-75.7-21.1-88.3-45c0,0-21,83.2-25.4,99.3-7.7,27.9-22.7,55.7-36.4,77.4,32.5,9.6,66.8,14.8,102.4,14.8,199.5,0,361.3-161.8,361.3-361.3S599.2,39,399.7,39,38.4,200.8,38.4,400.3Z"/>
</svg>